<svg width="94" height="28" viewBox="0 0 94 28" fill="none" xmlns="http://www.w3.org/2000/svg">
<path d="M22.9934 9.27764L15.5757 9.23991H9.92923V27.4466H16.0111V13.4987H20.2543C23.1695 13.4987 23.1854 16.1434 23.2111 18.6371V27.4387H29.2316V18.6292C29.2316 10.8481 26.7636 9.26969 22.9934 9.26969V9.27764ZM44.0215 9.23197L40.1682 22.3063L39.9168 22.9178C39.9168 22.9178 36.0358 9.50596 35.9705 9.23197H29.5166C29.6927 9.72437 36.1407 27.1985 36.2218 27.4387H43.2675C43.3506 27.1985 49.7431 9.72437 49.9311 9.23197H44.0215ZM82.0304 18.1408C82.0304 18.1408 87.3127 9.77996 87.6689 9.23197H81.1616C81.0666 9.43052 78.1157 15.0077 78.1157 15.0077C78.1157 15.0077 75.4083 9.44839 75.3034 9.23197H68.2043L73.8963 18.1408L70.5318 23.2394C65.1743 23.4102 63.4386 23.4102 61.7979 23.4102H61.2972C57.8437 23.4102 55.7676 22.5386 55.4153 20.0349L55.3876 19.8364H68.1647V18.8555C68.1647 15.7622 67.2722 8.63633 59.0212 8.63633C53.1492 8.63633 49.3077 12.3531 49.3077 18.1427C49.3077 23.8033 53.5727 27.6611 59.8703 27.673L65.8076 27.5836L71.4639 27.4387H74.9333C75.0422 27.2402 78.1118 21.4287 78.1118 21.4287C78.1118 21.4287 80.7361 27.2421 80.841 27.4387H88.0846C87.7066 26.9026 82.0265 18.1408 82.0265 18.1408H82.0304ZM55.4628 16.2109C55.5696 14.9859 56.1278 12.6787 58.7837 12.6787C61.6178 12.6787 62.1344 14.7814 62.1779 16.2109H55.4628ZM0 27.4387H6.02839V9.23197H0V27.4387ZM0 5.79711H6.02839V0.327148H0V5.79711Z" fill="white"/>
<path d="M90.2497 6.32403H90.7504C91.1819 6.32403 91.6014 6.30219 91.6014 5.78596C91.6014 5.3432 91.2195 5.29555 90.8889 5.29555H90.2497V6.32403ZM89.7767 4.89449H90.9642C91.7222 4.89449 92.0824 5.19628 92.0824 5.80582C92.0824 6.41536 91.7142 6.63177 91.2393 6.6834L92.1556 8.09705H91.6371L90.7662 6.72112H90.2438V8.09705H89.7767V4.89449ZM90.8197 8.83961C91.2841 8.85543 91.7427 8.73175 92.1367 8.48442C92.5306 8.2371 92.842 7.87739 93.0308 7.45141C93.2197 7.02542 93.2775 6.55257 93.1967 6.09343C93.116 5.6343 92.9005 5.20982 92.5777 4.87437C92.2549 4.53893 91.8397 4.30781 91.3852 4.21064C90.9307 4.11347 90.4576 4.15467 90.0265 4.32896C89.5955 4.50325 89.2262 4.8027 88.9659 5.18892C88.7056 5.57514 88.5661 6.03054 88.5655 6.49676C88.5655 7.82305 89.555 8.83763 90.8098 8.83763L90.8197 8.83961ZM90.8098 3.76079C91.3497 3.7604 91.8777 3.92069 92.3268 4.22139C92.7759 4.52209 93.126 4.94968 93.3328 5.45006C93.5396 5.95044 93.5939 6.50111 93.4886 7.03241C93.3834 7.5637 93.1234 8.05175 92.7416 8.43478C92.3598 8.81781 91.8733 9.07861 91.3437 9.18419C90.8141 9.28977 90.2652 9.23539 89.7664 9.02791C89.2677 8.82043 88.8414 8.4692 88.5417 8.01864C88.242 7.56808 88.0822 7.03845 88.0826 6.49676C88.0805 6.13688 88.1496 5.78016 88.2859 5.44726C88.4222 5.11437 88.623 4.81192 88.8767 4.55744C89.1303 4.30296 89.4318 4.10151 89.7636 3.96476C90.0955 3.82801 90.451 3.75868 90.8098 3.76079Z" fill="white"/>
</svg>
